<?xml version="1.0" encoding="UTF-8" standalone="no"?>
<!DOCTYPE svg PUBLIC "-//W3C//DTD SVG 1.1//EN" "http://www.w3.org/Graphics/SVG/1.1/DTD/svg11.dtd">
<svg width="100%" height="100%" viewBox="0 0 1024 1024" version="1.1" xmlns="http://www.w3.org/2000/svg" xmlns:xlink="http://www.w3.org/1999/xlink" xml:space="preserve" xmlns:serif="http://www.serif.com/" style="fill-rule:evenodd;clip-rule:evenodd;stroke-linejoin:round;stroke-miterlimit:2;">
    <g transform="matrix(2.07541,0,0,1.85785,144.364,-445.451)">
        <path d="M172.946,767.826C112.82,764.007 65.171,739.922 31.883,694.057C21.672,679.988 15.466,668.007 9.188,649.91C7.699,645.619 -2.274,648.559 -15.835,639.545C-32.698,628.335 -49.476,603.577 -50.196,555.737C-50.578,530.305 -30.498,501.887 -6.541,501.232C-7.464,488.234 9.856,343.884 131.35,326.884C137.686,325.997 144.57,316.456 144.518,309.405C144.393,292.455 133.836,287.969 133.372,284.908C131.492,272.513 143.477,262.571 166.251,262.892C195.585,263.305 229.232,283.916 234.779,328.884C349.208,354.468 361.965,485.096 360.819,501.232C384.776,501.887 404.856,530.305 404.473,555.737C403.754,603.577 386.976,628.335 370.113,639.545C356.552,648.559 346.579,645.619 345.09,649.91C338.812,668.007 332.606,679.988 322.395,694.057C289.107,739.922 241.458,764.007 181.332,767.826L172.946,767.826ZM320.786,501.128C309.444,430.529 248.476,381.685 238.576,396.439C182.746,479.634 120.926,428.113 97.52,426.32C80.923,425.049 44.762,436.804 33.202,503.902C32.326,508.986 28.702,539.375 29.073,567.089C25.395,566.995 21.897,564.806 18.688,560.705C9.746,549.276 -0.121,540.874 -8.379,545.297C-12.209,547.349 -15.941,552.612 -16.127,558.84C-17.501,604.717 8.061,612.677 34.039,611.431C51.17,689.081 110.399,729.515 177.139,730.028C243.879,729.515 303.108,689.081 320.238,611.431C346.217,612.677 371.779,604.717 370.405,558.84C370.219,552.612 366.487,547.349 362.657,545.297C354.399,540.874 344.532,549.276 335.59,560.705C332.381,564.806 328.883,566.995 325.205,567.089C325.596,545.391 327.233,541.259 320.786,501.128ZM244.424,512C257.485,512 268.089,526.602 268.089,544.587C268.089,562.573 257.485,577.174 244.424,577.174C231.364,577.174 220.76,562.573 220.76,544.587C220.76,526.602 231.364,512 244.424,512ZM236.646,626.373C236.646,652.96 210.036,674.514 177.212,674.514C144.388,674.514 117.778,652.96 117.778,626.373L236.646,626.373ZM109.854,512C122.914,512 133.518,526.602 133.518,544.587C133.518,562.573 122.914,577.174 109.854,577.174C96.793,577.174 86.189,562.573 86.189,544.587C86.189,526.602 96.793,512 109.854,512Z"/>
    </g>
</svg>
