<?xml version="1.0" encoding="UTF-8" standalone="no"?>
<!DOCTYPE svg PUBLIC "-//W3C//DTD SVG 1.1//EN" "http://www.w3.org/Graphics/SVG/1.1/DTD/svg11.dtd">
<svg width="100%" height="100%" viewBox="0 0 1024 1024" version="1.1" xmlns="http://www.w3.org/2000/svg" xmlns:xlink="http://www.w3.org/1999/xlink" xml:space="preserve" xmlns:serif="http://www.serif.com/" style="fill-rule:evenodd;clip-rule:evenodd;stroke-linejoin:round;stroke-miterlimit:2;">
    <g transform="matrix(1,0,0,1,432.562,77.9375)">
        <path d="M0,0C9.045,7.454 15.733,18.422 17.125,30.063C17.24,31.395 17.348,32.728 17.438,34.063L20.191,32.488C51.151,15.157 84.961,13.766 118.728,23.217C169.644,37.468 197.671,89.108 201.094,119.055C202.651,132.681 202.261,145.471 200.438,159.063L201.836,160.065C212.801,167.937 223.666,175.928 234.438,184.063C239.827,188.124 245.223,192.176 250.664,196.168C259.255,202.471 267.791,208.833 276.25,215.313C282.631,220.201 289.055,224.997 295.625,229.627C299.903,232.651 304.056,235.815 308.191,239.031C313.885,243.443 319.693,247.697 325.499,251.96C329.828,255.14 334.147,258.331 338.438,261.563C342.593,264.692 346.774,267.783 350.969,270.859C359.578,277.177 368.102,283.596 376.582,290.087C382.489,294.6 388.443,299.042 394.438,303.438C423.963,325.113 422.154,324.872 426.328,329.489C430.588,334.202 424.58,342.341 410.02,337.813C406.764,336.8 384.77,326.847 380.795,325.151C375.272,322.79 369.845,320.326 364.484,317.613L360.253,315.486L357.931,314.316C353.229,311.952 348.52,309.602 343.813,307.25L309.438,290.063L309.438,292.969C309.438,304.063 309.438,304.063 309.375,306.513C309.465,309.386 309.942,311.502 311.863,313.676C313.187,314.824 314.544,315.936 315.922,317.02C318.979,319.502 321.728,322.207 324.5,325L326.085,326.595C329.338,329.892 332.489,333.243 335.488,336.773C337.071,338.632 338.673,340.464 340.293,342.289C380.882,388.035 409.569,435.234 419.055,499.688C424.547,537.008 420.131,579.794 397.438,611.063C379.241,636.135 353.165,652.179 322.254,657.555C304.76,660.597 277.948,656.305 267.301,653.511C247.248,648.249 229.413,638.271 214.438,624.063C205.11,615.212 195.655,603.177 189.14,590.471C167.256,547.79 175.735,496.219 192.043,452.364C199.63,432.927 208.925,414.474 220.474,397.41C249.297,354.82 280.629,326.106 280.629,326.106C280.629,326.106 288.015,319.96 292.052,317.413C294.74,314.764 295.046,313.291 295.156,309.578C295.156,309.578 295.421,285.908 295.438,282.063C295.438,282.063 179.81,225.011 172.951,220.905C169.387,218.654 169.387,218.654 165.344,218.375C162.928,219.246 161.279,220.549 159.25,222.125C144.16,232.941 126.703,238.142 108.438,240.063L110.711,243.219C117.673,252.944 124.306,262.792 130.438,273.063L131.564,274.945C165.515,332.188 178.317,396.696 162.16,461.699C153.675,494.03 137.081,523.329 114.457,547.855C112.698,549.777 111.029,551.739 109.375,553.75C106.754,556.835 103.84,559.381 100.754,561.992C98.49,564.016 96.371,566.144 94.258,568.324C77.349,585.722 56.623,597.72 34.689,607.678L31.704,609.034L29.438,610.063L29.713,613.495C33.037,655.03 35.843,696.598 38.625,738.172C39.13,745.711 39.639,753.25 40.15,760.788C40.65,768.168 41.147,775.547 41.641,782.927C41.933,787.288 42.226,791.65 42.523,796.011C42.799,800.076 43.071,804.141 43.34,808.207C43.439,809.685 43.539,811.164 43.64,812.642C44.221,821.125 44.574,829.557 44.438,838.063L47.324,838.031C50.897,837.994 54.469,837.971 58.042,837.953C59.581,837.943 61.121,837.94 62.659,837.912C83.427,837.532 88.054,838.19 93.438,844.063C97.47,848.462 98.388,854.486 97.549,860.474C96.866,865.351 94.473,868.912 90.499,870.986C85.955,873.358 80.594,872.725 75.594,872.656L40.654,872.531C34.762,872.447 30.581,872.234 25.438,869.063C22.542,868.833 22.459,868.707 20.625,870C14.479,874.334 0.388,872.667 -9.075,872.834C-11.424,872.876 -35.103,872.671 -35.103,872.671C-38.716,872.264 -41.237,869.961 -42.563,867.063C-43.54,864.925 -43.374,862.195 -43.42,859.467L-43.517,857.187C-43.618,854.681 -43.685,852.176 -43.753,849.67C-43.82,847.877 -43.888,846.084 -43.959,844.292C-44.106,840.49 -44.24,836.687 -44.364,832.884C-44.552,827.226 -44.785,821.57 -45.032,815.914C-45.369,808.177 -45.696,800.439 -46.009,792.7L-46.132,789.663L-46.381,783.49C-46.598,778.101 -46.818,772.712 -47.037,767.322C-47.403,758.321 -47.768,749.319 -48.131,740.317C-48.551,729.932 -48.973,719.548 -49.396,709.164C-49.806,699.09 -50.215,689.017 -50.623,678.944L-51.142,666.169C-51.345,661.179 -51.547,656.188 -51.748,651.197L-51.97,645.721C-52.073,643.225 -52.173,640.73 -52.272,638.234L-52.362,636.065C-52.546,631.393 -52.587,626.737 -52.563,622.063L-55.254,621.984C-77.83,620.982 -109.076,617.781 -128.102,604.258C-130.554,602.765 -130.554,602.765 -133.445,603.602C-136.995,605.265 -140.214,607.225 -143.438,609.438L-145.396,610.766C-162.677,622.603 -178.479,635.576 -193.054,650.628L-200.563,658.063C-206.884,663.247 -213.922,668.746 -222.418,668.34C-228.061,667.61 -232.866,666.274 -236.875,662.063C-242.371,656.29 -244.365,648.484 -243.563,641.063L-245.25,640.375C-253.093,635.924 -256.387,627.587 -258.813,619.25C-261.319,607.345 -260.303,595.947 -258.563,584.063L-259.918,585.637C-263.341,589.586 -266.767,593.462 -270.563,597.063C-272.956,599.333 -279.143,605.135 -284.563,603.063C-287.55,601.92 -290.511,596.044 -291.313,590.438L-291.663,588.266C-291.987,586.201 -292.28,584.134 -292.563,582.063L-292.965,579.344C-298.93,529.011 -281.134,477.516 -250.441,438.02C-241.106,426.209 -231.2,414.664 -219.563,405.063L-216.785,402.625C-199.206,387.247 -179.617,375.061 -158.563,365.063L-156.719,364.165C-127.329,349.934 -94.315,343.595 -61.813,343.75L-59.444,343.755C-46.935,343.797 -34.844,344.54 -22.563,347.063L-20.428,347.468C-9.223,349.622 1.403,353.307 12.125,357.16L14.843,358.131C16.517,358.732 18.188,359.342 19.855,359.963C24.719,361.71 28.894,362.47 34.125,362.438L37.887,362.461C42.51,361.942 45.793,360.612 49.195,357.406C57.953,345.596 58.803,333.578 56.965,319.422C50.958,287.912 31.181,259.04 11.961,234.069C7.57,228.364 3.251,222.162 -1.046,216.168C-2.45,214.218 -3.883,212.289 -5.289,210.34C-10.03,203.765 -20.867,186.656 -23.211,182.188C-35.791,158.207 -42.705,126.899 -34.969,100.074C-32.124,90.21 -26.573,81.764 -21.563,73.063C-25.623,74.214 -29.678,75.128 -33.926,76.197C-45.718,79.167 -58.69,81.424 -70.121,75.805C-76.381,72.727 -78.931,68.49 -81.813,62.438C-84.77,56.226 -83.9,47.464 -80.004,40.934C-71.48,26.647 -55.55,25.241 -40.563,22.063L-41.563,20.063C-44.114,13.176 -41.524,4.798 -36.828,-1.125C-27.481,-12.914 -10.868,-8.957 0,0ZM299.865,326.424C292.747,330.485 269.781,354.578 266.152,358.539C243.307,383.475 224.51,420.506 224.203,454.602L224.188,458.188L224.125,461.703C224.09,469.581 225.154,476.524 227.438,484.063L228.438,484.063L228.699,481.203C230.48,464.928 236.408,453.34 248.438,442.063L246.758,440.891L244.563,439.313L242.383,437.766C240.281,435.926 239.357,434.688 238.438,432.063C238.355,429.773 238.355,429.773 238.625,427.438L238.855,425.086C239.438,423.063 239.438,423.063 242.438,421.063C245.04,420.92 247.529,420.874 250.125,420.938L252.252,420.965C253.981,420.988 255.709,421.024 257.438,421.063L257.77,418.578L258.25,415.313L258.707,412.078C259.468,408.936 260.143,407.32 262.438,405.063C267.953,403.203 273.108,404.135 278.438,406.063C280.765,414.2 279.816,421.464 276.313,429.066C275.304,431.005 275.304,431.005 275.438,433.063L277.641,432.992C296.198,432.659 312.536,437.463 326.438,450.063C337.712,461.717 341.446,475.405 342.438,491.063C359.645,470.988 364.911,440.382 363.653,414.788C363.306,410.401 362.625,406.123 361.75,401.813L361.301,399.578C359.043,389.838 354.016,381.952 347.813,374.25L345.95,371.9C334.789,357.887 322.97,344.555 310.375,331.813L308.388,329.786L306.527,327.922L304.867,326.249C302.756,324.496 302.221,325.079 299.865,326.424ZM-15.563,620.063C-17.175,623.287 -16.488,626.763 -16.313,630.288L-16.07,635.806L-15.93,638.844C-14.863,662.245 -14.099,685.654 -13.389,709.068L-13.147,716.971C-12.676,732.355 -12.211,747.74 -11.748,763.124C-11.475,772.214 -11.2,781.303 -10.92,790.392C-10.764,795.498 -10.61,800.604 -10.46,805.711C-10.366,808.861 -10.269,812.011 -10.171,815.161C-10.127,816.614 -10.083,818.068 -10.042,819.521C-9.984,821.508 -9.922,823.496 -9.859,825.483L-9.758,828.842C-9.55,832.266 -9.048,835.667 -8.563,839.063L9.438,839.063C9.63,829.199 8.875,819.494 8.076,809.674L7.638,804.146C7.325,800.195 7.008,796.244 6.69,792.293C6.186,786.028 5.687,779.763 5.19,773.498C4.311,762.444 3.427,751.391 2.542,740.338C1.213,723.732 -0.112,707.126 -1.433,690.519C-1.927,684.31 -2.423,678.101 -2.922,671.892C-3.234,668.003 -3.544,664.115 -3.853,660.227L-4.283,654.881C-5.247,642.949 -5.99,631.02 -6.563,619.063C-9.636,619.063 -12.543,619.513 -15.563,620.063ZM-1.155,68.468C-18.157,87.724 -24.944,110.06 -23.747,135.371C-21.421,169.289 -0.519,194.333 19.134,220.304C44.059,253.322 74.909,297.168 70.973,340.559C69.414,350.761 64.872,361.937 56.563,368.438C46.655,375.137 38.441,376.953 26.438,376.063C20.955,374.887 15.788,373.035 10.613,370.895C-37.264,351.143 -95.282,354.065 -142.906,372.957C-170.035,384.252 -194.341,398.685 -215.563,419.063L-217.271,420.688C-225.864,428.904 -233.537,437.471 -240.563,447.063L-242.926,450.27C-266.071,482.688 -279.774,521.333 -279.75,561.313L-279.752,564.625C-279.7,572.599 -279.132,580.227 -277.563,588.063C-260.54,579.921 -249.044,560.159 -238.473,545.082C-228.58,531.063 -216.598,517.98 -200.563,511.063C-203.676,514.876 -206.764,518.351 -210.5,521.563C-229.985,538.327 -244.82,562.133 -247.563,588.063C-247.719,591.522 -247.748,594.975 -247.75,598.438L-247.787,601.148C-247.8,607.088 -247.045,612.309 -245.563,618.063L-243.563,617.063C-242.927,615.22 -242.927,615.22 -242.52,612.969L-241.966,610.372L-241.375,607.563C-236.793,587.273 -228.031,569.925 -214.563,554.063L-212.473,551.371C-210.588,549.094 -209.278,548.129 -206.563,547.063C-208.851,551.182 -211.269,555.135 -213.875,559.063C-228.386,581.883 -237.483,612.229 -233.023,639.34C-231.436,645.139 -230.236,649.597 -225.542,653.392C-222.381,655.948 -218.737,654.803 -215.746,652.918C-213.577,651.057 -211.572,649.096 -209.563,647.063L-206.668,644.172C-205.104,642.607 -203.541,641.041 -201.983,639.47C-198.001,635.462 -193.88,631.708 -189.563,628.063L-186.781,625.617C-172.859,613.454 -157.544,603.307 -141.563,594.063L-138.958,592.542C-124.027,583.919 -108.59,576.846 -92.813,569.938C-59.62,555.39 -30.089,537.776 -2.563,514.063L-0.352,512.23C19.778,495.347 39.903,467.554 43.438,441.063C43.674,436.974 43.673,432.907 43.625,428.813L43.623,425.633C43.595,420.674 43.487,415.933 42.438,411.063C49.856,422.191 46.018,440.044 43.652,452.371C38.046,478.582 20.516,500.099 2.438,519.063L0.355,521.27C-15.668,537.815 -35.889,550.369 -55.563,562.063L-58.185,563.622C-77.384,574.964 -97.376,584.622 -117.563,594.063C-115.399,596.226 -103.34,599.737 -103.34,599.737C-52.194,613.788 1.376,610.518 48.438,585.063L51.57,583.387C76.466,569.478 98.618,548.951 115.438,526.063L118.016,522.641C139.832,493.309 155.546,455.935 155.605,419.004L155.616,416.739C155.621,415.163 155.623,413.588 155.623,412.012C155.625,409.662 155.643,407.313 155.662,404.963C155.874,349.878 132.374,296.729 99.816,253.211L97.929,250.681C96.727,249.075 95.516,247.474 94.295,245.882C90.285,240.557 87.259,235.092 84.438,229.063C83.775,227.727 83.109,226.393 82.438,225.063L85.043,225.719C106.644,230.807 127.694,227.094 146.563,215.5C150.294,212.997 153.473,210.435 156.438,207.063L154.645,205.742C146.727,199.775 140.046,193.46 137.863,183.422C136.145,175.52 137.296,168.586 142.042,161.763C146.842,154.862 155.422,151.114 163.438,151.063C170.805,151.015 177.162,151.798 183.73,155.223C185.42,156.21 185.42,156.21 187.438,156.063C193.917,133.116 186.037,103.259 174.961,83.294C160.358,56.97 140.529,41.084 105.094,33.008C64.8,23.824 25.05,38.791 -1.155,68.468ZM98.091,118.208C110.019,118.208 119.703,127.97 119.703,139.994C119.703,152.018 110.019,161.78 98.091,161.78C86.164,161.78 76.48,152.018 76.48,139.994C76.48,127.97 86.164,118.208 98.091,118.208ZM221.438,421.063C217.637,427.995 213.979,434.993 210.438,442.063L209.083,444.762C203.712,455.76 200.78,464.222 204.761,476.109L205.438,478.063L206.091,480.109C212.651,500.55 224.15,517.102 243.438,527.063C259.663,534.465 276.394,535.121 293.438,530.063L293.438,529.063L290.027,528.984C270.445,528.345 252.336,523.8 237.84,509.73C223.944,494.298 219.242,474.908 219.188,454.688L219.176,450.903C219.228,442.595 219.926,434.935 221.879,426.871C222.691,423.998 222.691,423.998 221.438,421.063ZM243.438,427.063L242.438,430.063C246.059,435.174 246.059,435.174 251.438,438.063C256.6,438.636 259.878,437.251 264.438,435.063C262.41,430.586 261.135,427.93 256.438,426.125C251.707,424.582 247.884,424.779 243.438,427.063ZM-28.563,11.063C-30.047,17.398 -27.401,20.708 -23.563,23.063C-20.821,24.744 -17.926,25.892 -14.938,27.063C-13.321,27.735 0.522,34.466 4.438,37.063C4.651,28.568 -2.626,16.467 -6.563,12.063C-10.035,8.177 -13.952,5.651 -19.25,5.375C-23.708,5.143 -27.487,6.473 -28.563,11.063ZM-38.563,622.063C-39.837,624.612 -39.596,626.199 -39.459,629.048L-39.313,632.266L-39.134,635.831L-38.866,641.571C-38.769,643.656 -38.668,645.741 -38.567,647.826C-38.237,654.643 -37.924,661.461 -37.61,668.279L-37.267,675.655C-36.406,694.226 -35.628,712.802 -34.853,731.377L-34.392,742.422L-33.229,770.267L-32.024,799.103C-31.202,818.756 -30.382,838.409 -29.563,858.063L16.438,858.063C16.043,854.953 15.966,852.267 13.438,852.063C10.392,851.817 -13.386,852.258 -13.386,852.258C-16.431,852.071 -18.962,852.268 -20.312,851.225C-21.788,850.085 -21.795,844.62 -21.904,841.404C-21.904,841.404 -25.172,742.16 -26.091,712.317L-26.282,706.114C-27.148,678.099 -27.916,650.083 -28.563,622.063L-38.563,622.063ZM-63.703,43.098C-68.351,47.517 -71.162,50.97 -69.965,57.027C-69.391,59.932 -67.258,62.207 -65.395,63.098C-54.662,68.229 -41.578,66.171 -30.563,63.063C-20.43,59.632 -8.664,55.254 -0.563,48.063C0.285,47.311 1.115,46.669 1.876,46.076C-13.574,32.081 -47.986,28.155 -63.703,43.098ZM263.699,409.371C261.777,411.948 261.561,413.861 261.438,417.063C263.091,421.936 265.493,425.899 268.438,430.063C272.509,426.602 274.896,421.997 276.313,416.938C276.451,413.761 275.848,411.884 274.438,409.063C273.003,408.813 271.565,408.589 270.125,408.375L267.699,407.988C265.376,407.848 265.376,407.848 263.699,409.371ZM244.5,454.813C237.31,463.409 233.016,473.736 233.664,485C233.806,486.418 233.96,487.835 234.125,489.25L234.36,491.266C235.823,501.638 240.429,506.854 248.438,513.063C265.138,524.417 285.14,526.054 304.531,522.394C315.912,520.039 322.301,513.975 330.438,506.063L333.25,503.375C336.038,500.428 336.217,499.107 336.438,495.063L336.625,492.469C337.21,478.583 332.194,467.17 323.406,456.625C313.85,446.376 300.935,439.771 286.906,438.824C270.706,438.521 256.045,442.791 244.5,454.813ZM307.624,500.022C307.515,497.713 311.006,497.763 310.866,500.474C310.569,506.265 308.61,506.95 306.576,508.226C303.726,510.013 297.961,508.557 296.224,506.76C294.795,505.282 296.419,502.584 298.166,503.543C300.569,504.862 302.088,505.708 304.624,505.098C306.388,504.673 307.696,501.557 307.624,500.022ZM271.853,488.812C276.147,488.812 279.633,492.499 279.633,497.04C279.633,501.581 276.147,505.267 271.853,505.267C267.559,505.267 264.073,501.581 264.073,497.04C264.073,492.499 267.559,488.812 271.853,488.812ZM322.904,474.307C327.197,474.307 330.684,477.994 330.684,482.535C330.684,487.076 327.197,490.763 322.904,490.763C318.61,490.763 315.124,487.076 315.124,482.535C315.124,477.994 318.61,474.307 322.904,474.307ZM9.25,615.563L7.082,616.406L5.438,617.063C7.046,640.266 8.836,663.454 10.636,686.643L11.371,696.118L13.942,729.249C14.739,739.511 15.534,749.774 16.328,760.037C17.013,768.898 17.701,777.759 18.389,786.619C18.799,791.891 19.208,797.163 19.615,802.435C19.996,807.373 20.38,812.31 20.765,817.247L21.185,822.671C21.375,825.142 21.568,827.612 21.761,830.082L21.925,832.238C22.376,841.214 23.511,843.945 26.191,847.307C29.122,850.986 28.314,852.971 29.377,855.328C29.89,856.468 30.204,857.89 32.438,858.063C34.035,858.186 80.433,859.152 80.433,859.152C82.436,859.289 85.455,856.674 83.438,853.063C82.713,851.766 78.102,851.923 75.191,851.873L72.683,851.822L70,851.781L67.221,851.725C64.293,851.667 61.365,851.614 58.438,851.563C54.583,851.495 50.729,851.421 46.875,851.344L44.192,851.303L41.684,851.252L39.486,851.214C37.339,851.055 35.174,850.96 34.223,850.444C32.406,849.457 32.204,846.232 32.03,843.687L31.832,840.889L31.627,837.8L31.401,834.542C31.151,830.931 30.908,827.319 30.664,823.707L30.135,816.011C29.71,809.822 29.289,803.633 28.87,797.444C28.538,792.538 28.204,787.632 27.869,782.726C26.753,766.372 25.646,750.019 24.547,733.665L24.4,731.489L24.254,729.311C23.909,724.173 23.562,719.036 23.214,713.898C22.627,705.228 22.043,696.557 21.461,687.887L21.32,685.792C20.098,667.578 18.919,649.364 18.014,631.131L17.819,627.312L17.665,624.119C17.413,620.737 16.951,617.415 16.438,614.063C13.485,614.063 11.947,614.501 9.25,615.563ZM147.563,164.75C142.796,169.206 142.265,175.247 143.938,182.063C145.833,189.79 149.817,196.676 156.896,200.64C159.826,202.28 162.729,203.293 165.914,204.355C172.975,206.824 179.613,209.817 186.316,213.125L190.043,214.945C205.728,222.617 221.324,230.474 236.926,238.315C242.51,241.121 248.096,243.922 253.682,246.723C269.54,254.673 285.397,262.626 301.248,270.591C310.06,275.019 318.875,279.442 327.693,283.858C332.341,286.186 336.987,288.517 341.629,290.854C345.967,293.039 350.309,295.216 354.654,297.388C356.249,298.187 357.843,298.988 359.436,299.793C361.6,300.886 380.828,310.431 380.828,310.431C372.664,304.07 358.003,292.503 349.661,286.378C344.564,282.635 339.489,278.866 334.438,275.063C327.733,270.017 320.983,265.034 314.223,260.063C309.011,256.228 303.826,252.36 298.656,248.469C294.438,245.305 290.185,242.187 285.938,239.063C280.755,235.25 275.578,231.432 270.438,227.563C265.38,223.756 260.287,220 255.188,216.25C248.599,211.405 242.038,206.526 235.504,201.607C229.468,197.07 223.383,192.602 217.295,188.137C212.764,184.805 208.297,181.413 203.875,177.938C198.75,173.975 193.49,170.256 188.125,166.625L185.879,165.083C173.587,156.88 159.223,153.85 147.563,164.75ZM368.438,406.063L368.501,408.683C369.332,448.296 360.925,481.073 333.151,510.802C318.093,526.343 297.282,537.108 275.438,538.063L273.012,538.219C255.662,538.836 238.808,533.285 225.508,522.008C211.533,508.876 204.154,494.175 198.438,476.063C184.81,498.877 188.663,539.371 194.708,563.925C199.414,581.737 208.604,597.759 221.438,611.063C232.628,622.663 244.083,635.572 274.133,642.32C302.42,648.673 333.546,645.853 358.488,630.813C378.98,618.457 389.507,597.965 395.5,584.95C414.29,544.144 409.716,498.072 394.559,456.848C387.856,439.296 379.968,421.678 369.438,406.063L368.438,406.063Z" style="fill:rgb(111,74,136);"/>
    </g>
</svg>
